<?xml version="1.0" encoding="UTF-8"?> <svg xmlns="http://www.w3.org/2000/svg" id="Layer_1" data-name="Layer 1" viewBox="0 0 144.06 93.64"><defs><style>.cls-1{fill:#00703c;}.cls-2{fill:#ffd200;}</style></defs><path class="cls-1" d="M113,50.89c-8.29,0-13.24,6.88-13.24,13.52s5,13.52,13.24,13.52,13.29-6.88,13.29-13.52S121.31,50.89,113,50.89Zm5.46,13.52c0,3.72-.71,10-5.46,10-4.47,0-5.41-5.42-5.41-10s.94-10,5.41-10C117.74,54.44,118.45,60.69,118.45,64.41Z" transform="translate(-8.96)"></path><path class="cls-1" d="M152.75,51.63H141.66l3.54,3.53V65.32c-.39-.48-10.87-13.69-10.87-13.69h-9l3.54,3.53V73.65l-3.54,3.54h11.3l-3.54-3.54V60.1L149.46,80s0-24.7,0-24.8L153,51.63Z" transform="translate(-8.96)"></path><path class="cls-2" d="M75.82,11.12,82,0a23.65,23.65,0,0,1-3.54,2.73C71,7.82,61.86,9,52.68,16.58a34.3,34.3,0,0,0-9.1,12.55,58.25,58.25,0,0,1,21-14.07C69.67,13.17,73.23,12.14,75.82,11.12Z" transform="translate(-8.96)"></path><path class="cls-1" d="M72.55,17.06C65.9,19.18,58,21.2,49.86,26.68c-6.33,4.26-10,11.55-10,11.55a50.6,50.6,0,0,1,21.88-12c2.6-.62,4.79-1.13,6.63-1.55Z" transform="translate(-8.96)"></path><path class="cls-1" d="M94.76,63.52l-6.71-3.6c-1.74-1-2.36-2.24-2.36-3.06a1.94,1.94,0,0,1,.61-1.31,3.49,3.49,0,0,1,2.55-1,4.64,4.64,0,0,1,1.86.49l3.46,3.42.1.09L98,52.61l-6.87-1a15.13,15.13,0,0,0-2.66-.17c-6.23,0-9.07,3.7-9.07,7.15,0,2,1.21,4.83,4.62,6.68l6.7,3.61a2.74,2.74,0,0,1,1.41,2.38c0,2.44-2.22,3.32-3.72,3.32a4.13,4.13,0,0,1-2.3-.65l-3.81-3.76-.11-.11-3.12,6.06L77,73.46,68.38,51.7l0-.07H64.09L55.27,73.49l-2.06,2.62L50.4,72.89V39.41c9-7.11,14.76-8.55,14.74-8.54a41.85,41.85,0,0,0-17.61,5.21,50.27,50.27,0,0,0-9.16,6.75v0h0c-1.52,2.85-3.63,7.6-5.69,12.69L22.41,36.81H9l4.3,4.3V72.8L9,77.1H23.67L19.3,72.8V48.22l9.61,17.2a84.93,84.93,0,0,0-3,10L29,71.8a60,60,0,0,1,12.4-23.69V73.18l-4.3,4h26l-3.4-3.4c0-.13,1.3-3.22,1.35-3.36h7.73c0,.14,1.14,3.23,1.19,3.36l-3.41,3.4H79.28l6.41.17a18.63,18.63,0,0,0,3,.23c7.28,0,9.86-4.31,9.86-8A6.8,6.8,0,0,0,94.76,63.52ZM62.42,66.94,65,60.61c.19.48,2.32,6,2.43,6.33Z" transform="translate(-8.96)"></path><path class="cls-1" d="M74.49,47.22a17.68,17.68,0,0,1-4.65.56c-3.21,0-6.92-1.63-6.92-6.18s3.19-6.27,7.61-6.27a11.47,11.47,0,0,1,3.63.53l-.26,2.62A6.16,6.16,0,0,0,71,37.71c-2.6,0-4.74,1.08-4.74,3.89a3.69,3.69,0,0,0,4,3.8,2.8,2.8,0,0,0,1.14-.21V42.81H69.51V40.54h5Z" transform="translate(-8.96)"></path><path class="cls-1" d="M80.54,35.54H89v2.27H83.75v2.48h5v2.28h-5v2.72h5.46v2.28H80.54Z" transform="translate(-8.96)"></path><path class="cls-1" d="M99.88,35.33c4,0,6,2.36,6,6.22s-2.11,6.23-6,6.23-6-2.4-6-6.23S95.92,35.33,99.88,35.33Zm0,10.07c2,0,2.73-1.87,2.73-3.85s-.78-3.84-2.73-3.84-2.72,1.76-2.72,3.84S97.93,45.4,99.88,45.4Z" transform="translate(-8.96)"></path><path class="cls-1" d="M110.93,35.54h5.73c2.13,0,3.87,1,3.87,3a2.8,2.8,0,0,1-2.31,3v0c1,.27,1.11,1.19,1.71,2.65l1.17,3.28h-3.34l-.69-2.17c-.66-2.07-1.07-2.59-2.26-2.59h-.67v4.76h-3.21Zm3.21,5H115c1,0,2.35,0,2.35-1.4,0-1.12-1.12-1.33-2.35-1.33h-.84Z" transform="translate(-8.96)"></path><path class="cls-1" d="M136.93,47.22a17.75,17.75,0,0,1-4.66.56c-3.2,0-6.91-1.63-6.91-6.18s3.19-6.27,7.6-6.27a11.49,11.49,0,0,1,3.64.53l-.26,2.62a6.16,6.16,0,0,0-2.93-.77c-2.6,0-4.74,1.08-4.74,3.89a3.68,3.68,0,0,0,4,3.8,2.8,2.8,0,0,0,1.14-.21V42.81H132V40.54h5Z" transform="translate(-8.96)"></path><path class="cls-1" d="M142.62,35.54h8.48v2.27h-5.28v2.48h5v2.28h-5v2.72h5.47v2.28h-8.67Z" transform="translate(-8.96)"></path><path class="cls-1" d="M18.55,90.26c0,2.33-1.51,3.38-3.73,3.38s-3.74-1-3.74-3.38V85h2.27v4.9c0,1.13.31,2.08,1.47,2.08s1.46-.95,1.46-2.08V85h2.27Z" transform="translate(-8.96)"></path><path class="cls-1" d="M27.41,85H30.3l2.88,5.78h0l0-5.78h2.07V93.5H32.42l-3-5.83h0l.08,5.83H27.41Z" transform="translate(-8.96)"></path><path class="cls-1" d="M45,85h2.27V93.5H45Z" transform="translate(-8.96)"></path><path class="cls-1" d="M56.49,85H58.9l1.9,6.68h0L62.72,85h2.33l-2.9,8.52H59.34Z" transform="translate(-8.96)"></path><path class="cls-1" d="M73.51,85h6v1.61H75.78v1.76h3.53V90H75.78v1.92h3.87V93.5H73.51Z" transform="translate(-8.96)"></path><path class="cls-1" d="M88.62,85h4c1.51,0,2.74.68,2.74,2.15a2,2,0,0,1-1.63,2.14v0c.73.19.78.84,1.21,1.88l.83,2.32H93.45L93,92c-.46-1.47-.76-1.83-1.6-1.83h-.47V93.5H88.62Zm2.27,3.54h.6c.73,0,1.65,0,1.65-1,0-.79-.79-.94-1.65-.94h-.6Z" transform="translate(-8.96)"></path><path class="cls-1" d="M104.07,91.4a5,5,0,0,0,2.34.56c.72,0,1.4-.15,1.4-.83,0-1.59-4-.59-4-3.69,0-2,2-2.61,3.71-2.61a7,7,0,0,1,2.19.32l-.14,1.76a4.59,4.59,0,0,0-1.9-.39c-.57,0-1.52,0-1.52.79,0,1.38,4,.45,4,3.53,0,2.2-1.86,2.8-3.75,2.8a9.12,9.12,0,0,1-2.54-.36Z" transform="translate(-8.96)"></path><path class="cls-1" d="M118.69,85H121V93.5h-2.26Z" transform="translate(-8.96)"></path><path class="cls-1" d="M132,86.66h-2.1V85h6.47v1.68h-2.1V93.5H132Z" transform="translate(-8.96)"></path><path class="cls-1" d="M146,90.29,142.81,85h2.61l1.67,3.41L148.74,85h2.61l-3.12,5.31V93.5H146Z" transform="translate(-8.96)"></path></svg> 